G04 #@! TF.GenerationSoftware,KiCad,Pcbnew,(5.1.4)-1*
G04 #@! TF.CreationDate,2019-09-24T21:19:54-07:00*
G04 #@! TF.ProjectId,blacker-cannon-cards,626c6163-6b65-4722-9d63-616e6e6f6e2d,rev?*
G04 #@! TF.SameCoordinates,Original*
G04 #@! TF.FileFunction,Soldermask,Top*
G04 #@! TF.FilePolarity,Negative*
%FSLAX46Y46*%
G04 Gerber Fmt 4.6, Leading zero omitted, Abs format (unit mm)*
G04 Created by KiCad (PCBNEW (5.1.4)-1) date 2019-09-24 21:19:54*
%MOMM*%
%LPD*%
G04 APERTURE LIST*
%ADD10C,0.010000*%
G04 APERTURE END LIST*
D10*
G36*
X123477408Y-72680642D02*
G01*
X123785706Y-72809590D01*
X124034801Y-73048962D01*
X124077088Y-73109094D01*
X124149712Y-73227072D01*
X124197698Y-73338984D01*
X124226113Y-73474531D01*
X124240026Y-73663410D01*
X124244502Y-73935323D01*
X124244789Y-74091923D01*
X124241513Y-74425926D01*
X124228466Y-74667883D01*
X124200821Y-74851704D01*
X124153750Y-75011301D01*
X124093158Y-75157016D01*
X123999223Y-75347533D01*
X123925218Y-75442200D01*
X123849291Y-75464097D01*
X123809535Y-75456595D01*
X123670993Y-75428059D01*
X123466129Y-75395841D01*
X123348499Y-75380324D01*
X123087109Y-75379448D01*
X122881524Y-75435996D01*
X122746214Y-75534545D01*
X122695648Y-75659671D01*
X122744295Y-75795948D01*
X122860749Y-75900278D01*
X122982101Y-75957756D01*
X123139873Y-75981259D01*
X123372254Y-75975150D01*
X123458043Y-75968548D01*
X123895209Y-75931897D01*
X124083902Y-76160814D01*
X124305745Y-76506746D01*
X124484848Y-76936859D01*
X124612199Y-77413873D01*
X124678786Y-77900511D01*
X124675598Y-78359494D01*
X124654099Y-78519568D01*
X124594162Y-78783237D01*
X124514307Y-79041713D01*
X124457124Y-79183210D01*
X124231107Y-79523510D01*
X123932619Y-79769057D01*
X123580279Y-79912232D01*
X123192707Y-79945414D01*
X122795161Y-79863350D01*
X122602590Y-79762869D01*
X122396453Y-79607654D01*
X122303742Y-79518737D01*
X122064433Y-79263306D01*
X122083147Y-76380536D01*
X122087860Y-75698624D01*
X122092697Y-75131102D01*
X122098172Y-74666307D01*
X122104801Y-74292576D01*
X122113098Y-73998244D01*
X122123579Y-73771647D01*
X122136758Y-73601123D01*
X122153151Y-73475008D01*
X122173272Y-73381638D01*
X122197637Y-73309350D01*
X122221028Y-73257857D01*
X122434483Y-72958070D01*
X122723638Y-72757707D01*
X123079453Y-72662870D01*
X123106148Y-72660380D01*
X123477408Y-72680642D01*
X123477408Y-72680642D01*
G37*
X123477408Y-72680642D02*
X123785706Y-72809590D01*
X124034801Y-73048962D01*
X124077088Y-73109094D01*
X124149712Y-73227072D01*
X124197698Y-73338984D01*
X124226113Y-73474531D01*
X124240026Y-73663410D01*
X124244502Y-73935323D01*
X124244789Y-74091923D01*
X124241513Y-74425926D01*
X124228466Y-74667883D01*
X124200821Y-74851704D01*
X124153750Y-75011301D01*
X124093158Y-75157016D01*
X123999223Y-75347533D01*
X123925218Y-75442200D01*
X123849291Y-75464097D01*
X123809535Y-75456595D01*
X123670993Y-75428059D01*
X123466129Y-75395841D01*
X123348499Y-75380324D01*
X123087109Y-75379448D01*
X122881524Y-75435996D01*
X122746214Y-75534545D01*
X122695648Y-75659671D01*
X122744295Y-75795948D01*
X122860749Y-75900278D01*
X122982101Y-75957756D01*
X123139873Y-75981259D01*
X123372254Y-75975150D01*
X123458043Y-75968548D01*
X123895209Y-75931897D01*
X124083902Y-76160814D01*
X124305745Y-76506746D01*
X124484848Y-76936859D01*
X124612199Y-77413873D01*
X124678786Y-77900511D01*
X124675598Y-78359494D01*
X124654099Y-78519568D01*
X124594162Y-78783237D01*
X124514307Y-79041713D01*
X124457124Y-79183210D01*
X124231107Y-79523510D01*
X123932619Y-79769057D01*
X123580279Y-79912232D01*
X123192707Y-79945414D01*
X122795161Y-79863350D01*
X122602590Y-79762869D01*
X122396453Y-79607654D01*
X122303742Y-79518737D01*
X122064433Y-79263306D01*
X122083147Y-76380536D01*
X122087860Y-75698624D01*
X122092697Y-75131102D01*
X122098172Y-74666307D01*
X122104801Y-74292576D01*
X122113098Y-73998244D01*
X122123579Y-73771647D01*
X122136758Y-73601123D01*
X122153151Y-73475008D01*
X122173272Y-73381638D01*
X122197637Y-73309350D01*
X122221028Y-73257857D01*
X122434483Y-72958070D01*
X122723638Y-72757707D01*
X123079453Y-72662870D01*
X123106148Y-72660380D01*
X123477408Y-72680642D01*
G36*
X131996813Y-77500000D02*
G01*
X127522208Y-81974938D01*
X126898400Y-82598482D01*
X126299783Y-83196240D01*
X125732362Y-83762251D01*
X125202141Y-84290551D01*
X124715122Y-84775180D01*
X124277311Y-85210176D01*
X123894710Y-85589576D01*
X123573324Y-85907419D01*
X123319157Y-86157743D01*
X123138213Y-86334585D01*
X123036495Y-86431985D01*
X123015756Y-86449876D01*
X122967706Y-86406267D01*
X122836610Y-86279423D01*
X122628483Y-86075315D01*
X122349340Y-85799916D01*
X122005195Y-85459198D01*
X121602063Y-85059134D01*
X121145959Y-84605696D01*
X120642896Y-84104856D01*
X120098890Y-83562586D01*
X119519955Y-82984860D01*
X119131720Y-82597033D01*
X120892731Y-82597033D01*
X120918860Y-82639189D01*
X121005053Y-82660222D01*
X121175413Y-82667458D01*
X121369111Y-82668238D01*
X121867796Y-82668238D01*
X121940660Y-82274318D01*
X121968994Y-82069504D01*
X121997625Y-81772722D01*
X122023837Y-81418024D01*
X122044912Y-81039461D01*
X122051397Y-80886312D01*
X122089270Y-79892227D01*
X122221620Y-79990259D01*
X122612689Y-80204946D01*
X123063252Y-80325269D01*
X123546132Y-80348393D01*
X124034150Y-80271483D01*
X124252093Y-80202028D01*
X124631878Y-80002552D01*
X124991414Y-79708051D01*
X125298127Y-79348953D01*
X125469087Y-79065245D01*
X125677678Y-78527591D01*
X125772226Y-77991316D01*
X125755964Y-77470357D01*
X125632125Y-76978655D01*
X125403945Y-76530148D01*
X125074657Y-76138775D01*
X124727194Y-75867515D01*
X124425241Y-75673752D01*
X124750605Y-75337832D01*
X125025751Y-74995879D01*
X125196129Y-74633264D01*
X125274589Y-74217113D01*
X125283355Y-73975001D01*
X125225794Y-73510449D01*
X125061830Y-73105446D01*
X124799609Y-72766928D01*
X124447276Y-72501826D01*
X124012975Y-72317075D01*
X123504853Y-72219607D01*
X123204838Y-72205707D01*
X122684130Y-72252795D01*
X122230339Y-72398182D01*
X121824328Y-72648055D01*
X121815840Y-72654733D01*
X121526220Y-72944119D01*
X121316757Y-73298511D01*
X121178278Y-73736344D01*
X121126248Y-74040551D01*
X121114843Y-74191044D01*
X121104053Y-74454245D01*
X121094088Y-74816807D01*
X121085159Y-75265385D01*
X121077474Y-75786633D01*
X121071245Y-76367204D01*
X121066681Y-76993753D01*
X121063992Y-77652933D01*
X121063380Y-78035732D01*
X121062047Y-78860555D01*
X121059002Y-79570257D01*
X121053853Y-80175765D01*
X121046211Y-80688005D01*
X121035683Y-81117905D01*
X121021878Y-81476391D01*
X121004405Y-81774389D01*
X120982872Y-82022827D01*
X120956889Y-82232632D01*
X120926064Y-82414729D01*
X120902563Y-82526427D01*
X120892731Y-82597033D01*
X119131720Y-82597033D01*
X118912105Y-82377649D01*
X118524895Y-81990529D01*
X114065880Y-77531183D01*
X118556741Y-73040652D01*
X123047601Y-68550122D01*
X131996813Y-77500000D01*
X131996813Y-77500000D01*
G37*
X131996813Y-77500000D02*
X127522208Y-81974938D01*
X126898400Y-82598482D01*
X126299783Y-83196240D01*
X125732362Y-83762251D01*
X125202141Y-84290551D01*
X124715122Y-84775180D01*
X124277311Y-85210176D01*
X123894710Y-85589576D01*
X123573324Y-85907419D01*
X123319157Y-86157743D01*
X123138213Y-86334585D01*
X123036495Y-86431985D01*
X123015756Y-86449876D01*
X122967706Y-86406267D01*
X122836610Y-86279423D01*
X122628483Y-86075315D01*
X122349340Y-85799916D01*
X122005195Y-85459198D01*
X121602063Y-85059134D01*
X121145959Y-84605696D01*
X120642896Y-84104856D01*
X120098890Y-83562586D01*
X119519955Y-82984860D01*
X119131720Y-82597033D01*
X120892731Y-82597033D01*
X120918860Y-82639189D01*
X121005053Y-82660222D01*
X121175413Y-82667458D01*
X121369111Y-82668238D01*
X121867796Y-82668238D01*
X121940660Y-82274318D01*
X121968994Y-82069504D01*
X121997625Y-81772722D01*
X122023837Y-81418024D01*
X122044912Y-81039461D01*
X122051397Y-80886312D01*
X122089270Y-79892227D01*
X122221620Y-79990259D01*
X122612689Y-80204946D01*
X123063252Y-80325269D01*
X123546132Y-80348393D01*
X124034150Y-80271483D01*
X124252093Y-80202028D01*
X124631878Y-80002552D01*
X124991414Y-79708051D01*
X125298127Y-79348953D01*
X125469087Y-79065245D01*
X125677678Y-78527591D01*
X125772226Y-77991316D01*
X125755964Y-77470357D01*
X125632125Y-76978655D01*
X125403945Y-76530148D01*
X125074657Y-76138775D01*
X124727194Y-75867515D01*
X124425241Y-75673752D01*
X124750605Y-75337832D01*
X125025751Y-74995879D01*
X125196129Y-74633264D01*
X125274589Y-74217113D01*
X125283355Y-73975001D01*
X125225794Y-73510449D01*
X125061830Y-73105446D01*
X124799609Y-72766928D01*
X124447276Y-72501826D01*
X124012975Y-72317075D01*
X123504853Y-72219607D01*
X123204838Y-72205707D01*
X122684130Y-72252795D01*
X122230339Y-72398182D01*
X121824328Y-72648055D01*
X121815840Y-72654733D01*
X121526220Y-72944119D01*
X121316757Y-73298511D01*
X121178278Y-73736344D01*
X121126248Y-74040551D01*
X121114843Y-74191044D01*
X121104053Y-74454245D01*
X121094088Y-74816807D01*
X121085159Y-75265385D01*
X121077474Y-75786633D01*
X121071245Y-76367204D01*
X121066681Y-76993753D01*
X121063992Y-77652933D01*
X121063380Y-78035732D01*
X121062047Y-78860555D01*
X121059002Y-79570257D01*
X121053853Y-80175765D01*
X121046211Y-80688005D01*
X121035683Y-81117905D01*
X121021878Y-81476391D01*
X121004405Y-81774389D01*
X120982872Y-82022827D01*
X120956889Y-82232632D01*
X120926064Y-82414729D01*
X120902563Y-82526427D01*
X120892731Y-82597033D01*
X119131720Y-82597033D01*
X118912105Y-82377649D01*
X118524895Y-81990529D01*
X114065880Y-77531183D01*
X118556741Y-73040652D01*
X123047601Y-68550122D01*
X131996813Y-77500000D01*
G36*
X109532034Y-72997668D02*
G01*
X114034147Y-77500110D01*
X105021243Y-86513014D01*
X96040591Y-77531514D01*
X98098168Y-75463188D01*
X101775558Y-75463188D01*
X101785184Y-75637089D01*
X101823225Y-75717246D01*
X101894456Y-75735236D01*
X101973823Y-75707020D01*
X102025163Y-75603909D01*
X102058027Y-75437335D01*
X102158628Y-75043197D01*
X102324958Y-74751253D01*
X102553611Y-74564857D01*
X102841177Y-74487361D01*
X103018959Y-74491884D01*
X103254122Y-74548369D01*
X103451931Y-74668835D01*
X103622290Y-74866754D01*
X103775101Y-75155593D01*
X103920266Y-75548824D01*
X104006192Y-75834736D01*
X104082951Y-76132622D01*
X104173684Y-76528274D01*
X104272982Y-76994903D01*
X104375432Y-77505719D01*
X104475624Y-78033934D01*
X104568147Y-78552759D01*
X104629012Y-78918114D01*
X104710000Y-79422333D01*
X104465322Y-79989578D01*
X104242082Y-80556179D01*
X104091443Y-81066174D01*
X104004976Y-81559514D01*
X103974248Y-82076153D01*
X103975913Y-82308696D01*
X104029357Y-82556521D01*
X104158963Y-82735667D01*
X104338196Y-82834952D01*
X104540522Y-82843191D01*
X104739406Y-82749202D01*
X104824357Y-82666281D01*
X104921324Y-82539993D01*
X104996706Y-82407760D01*
X105053227Y-82252097D01*
X105093609Y-82055519D01*
X105120576Y-81800541D01*
X105136853Y-81469677D01*
X105145161Y-81045443D01*
X105148024Y-80588337D01*
X105152206Y-79170223D01*
X106213949Y-76964268D01*
X106462939Y-76446541D01*
X106705886Y-75940621D01*
X106934708Y-75463391D01*
X107141324Y-75031732D01*
X107317656Y-74662525D01*
X107455622Y-74372653D01*
X107547142Y-74178998D01*
X107548871Y-74175310D01*
X107822050Y-73592308D01*
X106405179Y-73592308D01*
X105783142Y-75750993D01*
X105636404Y-76258405D01*
X105497985Y-76733596D01*
X105372377Y-77161409D01*
X105264069Y-77526687D01*
X105177552Y-77814273D01*
X105117318Y-78009010D01*
X105089791Y-78091102D01*
X105063189Y-78142320D01*
X105037874Y-78143041D01*
X105010566Y-78080142D01*
X104977987Y-77940503D01*
X104936857Y-77711001D01*
X104883899Y-77378513D01*
X104840364Y-77092906D01*
X104735633Y-76447985D01*
X104624206Y-75850597D01*
X104509680Y-75316317D01*
X104395655Y-74860720D01*
X104285728Y-74499382D01*
X104183498Y-74247876D01*
X104182647Y-74246203D01*
X104022468Y-74004020D01*
X103813845Y-73785679D01*
X103592345Y-73623728D01*
X103428868Y-73556441D01*
X103275847Y-73520995D01*
X103185675Y-73497459D01*
X103046021Y-73496441D01*
X102842489Y-73539018D01*
X102623350Y-73611225D01*
X102436870Y-73699095D01*
X102394632Y-73726337D01*
X102201636Y-73928209D01*
X102033387Y-74227595D01*
X101899744Y-74596835D01*
X101810565Y-75008272D01*
X101775709Y-75434246D01*
X101775558Y-75463188D01*
X98098168Y-75463188D01*
X100535256Y-73013370D01*
X105029922Y-68495225D01*
X109532034Y-72997668D01*
X109532034Y-72997668D01*
G37*
X109532034Y-72997668D02*
X114034147Y-77500110D01*
X105021243Y-86513014D01*
X96040591Y-77531514D01*
X98098168Y-75463188D01*
X101775558Y-75463188D01*
X101785184Y-75637089D01*
X101823225Y-75717246D01*
X101894456Y-75735236D01*
X101973823Y-75707020D01*
X102025163Y-75603909D01*
X102058027Y-75437335D01*
X102158628Y-75043197D01*
X102324958Y-74751253D01*
X102553611Y-74564857D01*
X102841177Y-74487361D01*
X103018959Y-74491884D01*
X103254122Y-74548369D01*
X103451931Y-74668835D01*
X103622290Y-74866754D01*
X103775101Y-75155593D01*
X103920266Y-75548824D01*
X104006192Y-75834736D01*
X104082951Y-76132622D01*
X104173684Y-76528274D01*
X104272982Y-76994903D01*
X104375432Y-77505719D01*
X104475624Y-78033934D01*
X104568147Y-78552759D01*
X104629012Y-78918114D01*
X104710000Y-79422333D01*
X104465322Y-79989578D01*
X104242082Y-80556179D01*
X104091443Y-81066174D01*
X104004976Y-81559514D01*
X103974248Y-82076153D01*
X103975913Y-82308696D01*
X104029357Y-82556521D01*
X104158963Y-82735667D01*
X104338196Y-82834952D01*
X104540522Y-82843191D01*
X104739406Y-82749202D01*
X104824357Y-82666281D01*
X104921324Y-82539993D01*
X104996706Y-82407760D01*
X105053227Y-82252097D01*
X105093609Y-82055519D01*
X105120576Y-81800541D01*
X105136853Y-81469677D01*
X105145161Y-81045443D01*
X105148024Y-80588337D01*
X105152206Y-79170223D01*
X106213949Y-76964268D01*
X106462939Y-76446541D01*
X106705886Y-75940621D01*
X106934708Y-75463391D01*
X107141324Y-75031732D01*
X107317656Y-74662525D01*
X107455622Y-74372653D01*
X107547142Y-74178998D01*
X107548871Y-74175310D01*
X107822050Y-73592308D01*
X106405179Y-73592308D01*
X105783142Y-75750993D01*
X105636404Y-76258405D01*
X105497985Y-76733596D01*
X105372377Y-77161409D01*
X105264069Y-77526687D01*
X105177552Y-77814273D01*
X105117318Y-78009010D01*
X105089791Y-78091102D01*
X105063189Y-78142320D01*
X105037874Y-78143041D01*
X105010566Y-78080142D01*
X104977987Y-77940503D01*
X104936857Y-77711001D01*
X104883899Y-77378513D01*
X104840364Y-77092906D01*
X104735633Y-76447985D01*
X104624206Y-75850597D01*
X104509680Y-75316317D01*
X104395655Y-74860720D01*
X104285728Y-74499382D01*
X104183498Y-74247876D01*
X104182647Y-74246203D01*
X104022468Y-74004020D01*
X103813845Y-73785679D01*
X103592345Y-73623728D01*
X103428868Y-73556441D01*
X103275847Y-73520995D01*
X103185675Y-73497459D01*
X103046021Y-73496441D01*
X102842489Y-73539018D01*
X102623350Y-73611225D01*
X102436870Y-73699095D01*
X102394632Y-73726337D01*
X102201636Y-73928209D01*
X102033387Y-74227595D01*
X101899744Y-74596835D01*
X101810565Y-75008272D01*
X101775709Y-75434246D01*
X101775558Y-75463188D01*
X98098168Y-75463188D01*
X100535256Y-73013370D01*
X105029922Y-68495225D01*
X109532034Y-72997668D01*
M02*
